<svg xmlns="http://www.w3.org/2000/svg" width="20" height="20" viewBox="0 0 1536 1536" style="-ms-transform:rotate(360deg);-webkit-transform:rotate(360deg)" transform="rotate(360)"><path d="M363 1408l91-91-235-235-91 91v107h128v128h107zm523-928q0-22-22-22-10 0-17 7l-542 542q-7 7-7 17 0 22 22 22 10 0 17-7l542-542q7-7 7-17zm-54-192l416 416-832 832H0v-416zm683 96q0 53-37 90l-166 166-416-416 166-165q36-38 90-38 53 0 91 38l235 234q37 39 37 91z" fill="#4ebbe3"/><path fill="rgba(0, 0, 0, 0)" d="M0 0h1536v1536H0z"/></svg>