<svg version="1.0" xmlns="http://www.w3.org/2000/svg" width="1448" height="1448" viewBox="0 0 1086 1086"><path d="M268.4 433.7c-1.6 1.1-40.5 88.4-39.8 89.4.6 1.1 49.4 1.2 51.1.1.6-.4 8.5-17.2 17.5-37.2l16.4-36.5h15c17.4 0 20.1.5 21 4.1.9 3.5-2 7.3-7.6 10.1-3.8 2-6 2.3-16 2.3-6.3 0-11.9.4-12.5.8-1.9 1.4-6.8 13-6.1 14.7.6 1.6 3.2 1.7 31.4 1.3 28.7-.4 31.1-.6 37.2-2.7 8.2-2.9 12.2-5.3 18.9-11.6 12.7-11.8 13.5-26.5 1.9-32.7l-4.3-2.3-61.5-.3c-33.8-.1-62 .1-62.6.5zm162.9.1c-1.6 1-40.4 88.2-39.7 89.3.6 1.1 49.4 1.2 51 .1 1.7-1 40.5-88.2 39.8-89.3-.6-1.1-49.4-1.2-51.1-.1zm80.1 0c-1.6 1-24.1 51.9-25.3 57.3-3.8 16.3 2.2 27.7 16.5 31.4 5.1 1.3 13 1.5 50 1.3l43.9-.3 2.7-5c1.4-2.8 2.9-6.2 3.3-7.7l.7-2.6-30.5-.4c-28.3-.3-30.6-.4-32.6-2.2-4-3.6-3.2-5.9 14.3-44.9 6.4-14.3 11.3-26.3 11-26.8-.6-1.1-52.4-1.2-54-.1zm155.9.7c-26.9 5.9-53 35.2-55 62-.9 12.3 2.7 19.4 12.4 24.2l5.8 2.8h43c42.4 0 43.1 0 49.5-2.3 10.3-3.7 19.8-9.9 28.6-18.6 13.9-13.9 21.8-30.3 21.8-45.1 0-12.8-4.8-19.4-17-23.1-6.6-2-79.9-1.9-89.1.1zm50.8 17.1c2.7 2.4 2.2 6.2-1.8 16.4-8.5 21-16.6 34-23.4 37.6-4 2-17.4 2.9-22.6 1.5-7.7-2.1-7.2-7.7 2.7-30 11.4-25.4 15-28.4 33.8-27.7 7.3.3 9.7.7 11.3 2.2zm76.2-17.8c-1 .6-7.3 13.4-7.3 14.8 0 .2 8.7.4 19.4.4h19.4l-16.4 36.6c-9 20.2-16.1 37.1-15.8 37.5.7 1.1 49.4 1.2 51.1.1.7-.4 8.6-17.2 17.6-37.3l16.4-36.4 20.4-.5 20.4-.5 2.7-5.6c5-10.5 12.3-9.4-61.7-9.6-35.7-.2-65.5.1-66.2.5zM947 463.4c0 .1 7.1 15.6 15.9 34.2 10.3 22 15.5 34.1 14.7 34.5-.6.4-14.4 1.2-30.7 1.9l-29.6 1.3-7.6-5.2c-7.6-5.1-7.6-5.1-15.7-5.1h-8.1l7.2 10.4 7.2 10.4-7.2 10.4-7.1 10.3 7.7.3 7.6.3 8.1-5.4 8.1-5.4 30.5 1.5c16.8.8 30.6 1.5 30.7 1.6.2.2-5.6 12.8-12.8 28.2-7.2 15.3-14.4 30.7-16 34.1l-2.8 6.3h21.8l30.1-33.3 30.2-33.2 14.1-.1c15.8-.1 25.8-2.1 34.9-7.1 19-10.4-2.3-24.3-37.3-24.3h-11.8l-30.3-33.5-30.3-33.4-10.7-.1c-6 0-10.8.2-10.8.4zM81 546v4h344.3c189.3 0 370.2-.3 401.9-.7 55.4-.6 57.8-.7 58.4-2.5.3-1 0-2.5-.6-3.3-1.1-1.3-53-1.5-402.6-1.5H81v4zm-25 18.6c-3.6.7-10.3 3.2-15 5.5-7 3.5-10.2 5.9-18 13.8-9.8 9.9-14.4 16.6-18.7 27.3-7.4 18.3-4.6 32.4 7.8 39.3l5.4 3h101l2.7-5c1.4-2.8 3-6.2 3.3-7.8l.7-2.7H93.6c-40.1 0-40.6-.2-38.3-12 1.1-5.1 11.3-28.9 15-34.7 3.1-4.9 7.4-8.8 11.2-10.4 2.1-1 12.7-1.5 37-1.9l34-.5 3.3-6.8c1.8-3.8 3-7.3 2.7-7.8-.4-.5-20.1-.9-48.3-.8-36.8 0-49.2.4-54.2 1.5zm149 41.5c-36.6 23.7-67.3 43.8-68.2 44.6-1 .9-1.5 2-1.2 2.4.3.5 24.1.9 53 .9h52.5l3.5-7.4c1.9-4.1 3.4-7.7 3.4-8 0-.3-15.9-.7-35.4-.8l-35.5-.3 30.9-20.2c17-11.2 31.4-20.4 32.1-20.5.7-.2 9.6 12.5 19.9 28.2l18.6 28.5 30 .3c16.4.1 31 0 32.2-.3 1.6-.4 2.2-1.1 1.8-2.1-.3-.8-12.8-21-27.7-44.9L287.8 563h-16.3L205 606.1zm191.9-41.9c-1.8 1.4-39.9 86-39.9 88.4 0 1.2 4.1 1.4 25.5 1.4 25.3 0 25.5 0 26.9-2.3.8-1.2 8.5-18.1 17.2-37.6l15.8-35.3 15.5.4c17.3.4 20.1 1.2 20.1 5.6 0 3.9-2.6 7.1-7.4 9.3-3.2 1.5-6.5 1.9-15.7 1.9-7.7 0-12 .4-13 1.2-.8.7-2.6 3.6-3.8 6.5l-2.4 5.2 14.8 22.5 14.8 22.6h26.9c22.7 0 26.9-.2 27.4-1.5.4-.9-4.7-9.1-12.6-20.6-7.2-10.5-13-19.2-12.8-19.4.2-.1 3-1 6.2-2 9.2-2.6 17.4-7.2 23-12.8 12.5-12.5 12.8-26.5.8-32-4.6-2.2-5.4-2.2-65.2-2.5-48-.2-60.9 0-62.1 1zm199.3.3c-21.3 4.7-42.5 23.6-51.7 46.2-7.7 19-4.6 33.7 8.4 40l5.6 2.8 52.2.3c49.3.3 52.3.2 53.3-1.5 2.5-4.1 25.7-56.9 25.3-57.6-.2-.4-11.9-.7-25.8-.7-25.3 0-25.5 0-26.9 2.2-.7 1.3-5.3 11.2-10.1 22l-8.7 19.8h-7.9c-7.9 0-12.7-1.1-14.1-3.3-1.4-2.2-.8-8.6 1.3-14.4 4.2-11.3 14-30.8 17.2-34.2 6.1-6.4 6.9-6.5 42-7.1l31.8-.5 3-6.8c1.7-3.7 2.7-7.2 2.4-7.7-1-1.6-89.6-1.1-97.3.5zm154.3 0c-22 4.8-42.4 23.2-51.8 46.6-7.8 19.4-4.2 34.3 9.8 40.6 3.6 1.6 8 1.8 44.1 2.1 32.7.2 41.4 0 47.2-1.2 19.9-4.1 39.7-20.5 49.6-41.1 5.1-10.6 6.6-16.1 6.6-24.7 0-11.6-6.1-19.3-17.5-22.3-8-2-78.6-2.1-88 0zm48.8 16c5.2 2.1 3.5 10.2-6.6 31.5-6.4 13.6-10.2 19-15.9 22.7-3.9 2.6-4.8 2.8-15.1 2.8s-11-.1-12.8-2.4c-1.6-2-1.9-3.3-1.4-6.5 1.2-7.1 14.7-36.8 19.2-42.2 2.6-3.1 6.9-5.6 11.1-6.5 4.2-.9 18.8-.5 21.5.6z"/></svg>